<?xml version="1.0" encoding="UTF-8" standalone="yes"?><svg xmlns="http://www.w3.org/2000/svg" xmlns:xlink="http://www.w3.org/1999/xlink" width="297.000mm" height="210.000mm" viewBox="0.000000 0.000000 297.000000 210.000000" stroke-linejoin="round" stroke-linecap="round" fill="none" fill-rule="evenodd"><desc>Composer Export</desc><script type="text/ecmascript"><![CDATA[
if(typeof(top) != "undefined")
{
	top.ShowPaper = ShowPaper;
}
function ShowHotSpot(evt,hotspotid)
{
	var svgDocument = evt.target.ownerDocument;
	var strId = "hotspot."+hotspotid;
	var hotspot = svgDocument.getElementById(strId);
	if(hotspot)
		hotspot.setAttribute("opacity",".5");
}
function HideHotSpot(evt,hotspotid)
{
	var svgDocument = evt.target.ownerDocument;
	var strId = "hotspot."+hotspotid;
	var hotspot = svgDocument.getElementById(strId);
	if(hotspot)
		hotspot.setAttribute("opacity","0");

	var toolTip = svgDocument.getElementById('ToolTip');
	if(toolTip)
		toolTip.setAttribute("visibility","hidden");
}
function ShowToolTip(evt,hotspotid,strTooltip)
{
	if(strTooltip=="")
	return;

	// change text
	var svgDocument = evt.target.ownerDocument;
	var tiptext = svgDocument.getElementById('ToolTipText');
	if( !tiptext )
	return;
	tiptext.firstChild.nodeValue = " " + strTooltip + "  " ;

	// show tooltip before, else some refresh issue

	var toolTip = svgDocument.getElementById('ToolTip');
	if(!toolTip)
	return;

	toolTip.setAttribute("visibility","visible");
	toolTip.setAttribute("opacity",".95");

	// move tooltip
	// get viewbox

	var root = svgDocument.documentElement;
	var vbox = (root.getAttribute("viewBox")).split(' ');
	var x0 = parseFloat(vbox[0]);
	var y0 = parseFloat(vbox[1]);
	var vboxW = parseFloat(vbox[2]);
	var vboxH = parseFloat(vbox[3]);

	// get default width of svg

	var strW = root.getAttribute("width");
	var svgW = parseFloat(strW);
	if(strW.indexOf('mm') != -1)
	svgW *= 3.779;

	var strH = root.getAttribute("height");
	var svgH = parseFloat(strH);
	if(strH.indexOf('mm') != -1)
	svgH *= 3.779;  	// 96 dpi  -> 96/25.4 = 3.779

	// update the viewbox / width / height if svg is embedded in html with zoom fit all
	var realx0 = x0;
	var realy0 = y0;
	var realvboxW = vboxW;
	var realvboxH = vboxH;
	var realsvgW = svgW;
	var realsvgH = svgH;

	if ((typeof(top) == "undefined") || (typeof(top.svgctl1) != "undefined")) // embedded in html
	{
		// get window size in pxl

		svgW = window.innerWidth;
		svgH = window.innerHeight;

		// calculate real viewbox

		realsvgW = svgW;
		realsvgH = svgH;
		if((svgW / svgH) > (vboxW / vboxH))
		{
			realvboxW = (vboxH * svgW) / svgH;
			realvboxH = vboxH;
			realx0 = x0 - (realvboxW - vboxW)/2 ;
		}
		else
		{
			realvboxH = (vboxW * svgH) / svgW;
			realvboxW = vboxW;
			realy0 = y0 - (realvboxH - vboxH)/2 ;
		}
	}

	// get user zoom/pan

	var newScale = root.currentScale;
	var translation = root.currentTranslate;

	// transform pxl to user unit

	var xPos = (((evt.clientX+10- translation.x)/newScale) * realvboxW)/realsvgW  + realx0 ;
	var yPos = (((evt.clientY+5- translation.y)/newScale) * realvboxH)/ realsvgH  + realy0 ;
	var scaleForWidth = ( (1 / newScale) * realvboxH) / realsvgH;

	// move tooltip

	toolTip.setAttribute("transform", "translate(" + xPos + "," + yPos + ")" );

	// resize tooltip

	var fontsize = 12;
	tiptext.setAttribute("font-size",fontsize*scaleForWidth);
	tiptext.setAttribute("y", fontsize*scaleForWidth);
	var tipBG = svgDocument.getElementById('ToolTipBG');
	var outline = tiptext.getBBox();
	if(tipBG)
	{
		tipBG.setAttribute("stroke-width", 1*scaleForWidth);
		tipBG.setAttribute("width", Number(outline.width) );
		tipBG.setAttribute("height", Number(outline.height) + fontsize*.5*scaleForWidth );
	}
	var ToolTipShadow = svgDocument.getElementById('ToolTipShadow');
	if(ToolTipShadow)
	{
		ToolTipShadow.setAttribute("width", Number(outline.width) );
		ToolTipShadow.setAttribute("height", Number(outline.height) + fontsize*.5*scaleForWidth );
		ToolTipShadow.setAttribute("x", 3*scaleForWidth);
		ToolTipShadow.setAttribute("y", 3*scaleForWidth);
	}
}
function ShowPaper()
{
  var svgDocument = getDocument();
  var paper = svgDocument.getElementById("paperID");
  if(paper)
  {
    paper.setAttribute("transform","scale(1)");
    paper.setAttribute("opacity","1");
    paper.setAttribute("visibility","visible");
  }
  var svg = svgDocument.getRootElement();
  if(svg)
  {
    svg.setAttribute("width","307.000mm");
    svg.setAttribute("height","220.000mm");
    svg.setAttribute("viewBox","-5.000000 -5.000000 307.000000 220.000000");
  }
}
]]></script><defs/><g><path style="fill:#ffffff" d="M296.88,209.93L0.05,209.93L0.05,0.05L296.88,0.05z"/><path style="fill:#b60505" d="M63.89,50.58L65.90,58.14L68.25,66.20L71.27,75.77L74.65,85.33L74.65,85.72L71.95,85.33L64.73,83.48L63.72,83.30L63.22,83.35L63.17,84.54L63.91,85.14L66.24,86.84L69.77,88.35L76.30,90.20L87.22,92.88L113.74,98.59L122.80,100.77L132.54,103.45L138.30,105.20L134.01,106.65L133.21,106.65L120.45,103.29L104.00,98.59L92.76,95.40L67.25,88.85L65.74,88.51L65.01,88.51L64.82,88.68L64.40,88.69L63.68,88.86L63.58,89.28L63.23,89.01L57.02,81.29L56.83,80.80L52.48,53.60L52.37,52.57L63.75,50.34z"/><path style="fill:#ea0e0e" d="M64.79,50.35L64.91,51.04L65.12,51.54L65.22,52.27L65.46,52.71L65.56,53.45L65.79,53.88L65.96,54.55L66.13,55.05L66.29,55.73L66.40,56.47L66.63,56.91L66.73,57.64L66.97,58.07L67.13,58.75L67.31,59.26L67.40,59.99L67.64,60.43L67.81,60.93L67.93,61.44L68.31,62.61L68.48,63.12L68.98,64.79L69.15,65.30L69.48,66.47L69.65,66.98L69.78,67.48L73.35,78.09L73.47,78.56L73.69,78.94L74.02,79.93L74.15,80.40L74.52,81.28L74.69,81.79L74.98,82.76L75.20,83.13L75.53,84.13L75.59,84.54L75.70,84.59L76.02,85.47L75.91,85.67L76.70,85.78L78.15,86.17L95.11,89.35L103.84,90.86L116.60,92.88L129.19,94.56L135.57,95.23L140.94,95.56L147.77,95.56L153.19,95.11L158.22,94.27L168.24,92.04L172.51,91.30L171.77,92.54L171.15,94.95L171.15,97.58L171.64,99.94L172.66,102.44L174.19,104.94L175.03,105.92L175.36,106.46L176.20,107.47L177.71,108.81L179.39,110.15L181.58,111.66L184.41,113.19L187.93,114.54L191.62,115.54L195.15,116.04L201.81,116.04L205.22,115.59L205.28,115.53L208.03,114.88L208.97,114.60L211.76,115.21L215.46,115.71L219.32,116.04L222.85,116.21L224.64,116.21L225.20,114.85L222.01,111.68L219.84,109.98L218.88,109.13L219.40,108.59L220.25,107.96L220.75,107.59L221.54,107.09L224.19,109.83L226.56,112.50L227.90,114.18L229.24,115.69L230.59,117.53L231.43,118.54L232.42,120.06L232.41,121.30L232.22,121.43L229.56,121.41L227.21,121.24L220.33,121.25L215.41,121.58L211.37,121.59L205.56,121.24L198.51,120.57L191.45,119.24L178.69,116.05L157.55,110.17L151.74,108.72L164.97,104.54L165.45,103.85L165.46,103.72L165.35,103.02L165.13,102.59L164.27,101.77L162.93,101.10L161.99,100.89L160.07,100.43L158.23,100.26L156.16,100.26L154.14,100.43L149.60,101.26L138.30,105.20L132.54,103.45L122.80,100.77L113.74,98.59L87.22,92.88L76.30,90.20L69.77,88.35L66.24,86.84L63.91,85.14L63.17,84.54L63.22,83.35L63.72,83.30L64.73,83.48L71.95,85.33L74.65,85.72L74.65,85.33L71.27,75.77L68.25,66.20L65.90,58.14L63.89,50.58L63.75,50.34L64.58,50.05z"/><path style="fill:#4c0505" d="M165.45,103.85L164.97,104.54L151.74,108.72L145.37,110.66L141.05,112.01L149.66,116.04L152.52,117.55L162.61,123.07L167.96,125.61L173.50,127.79L179.87,129.81L187.43,131.66L194.14,132.32L197.84,132.49L200.13,132.49L206.73,132.21L213.28,131.20L218.27,129.98L224.19,127.68L228.82,124.76L228.95,124.55L229.41,124.33L229.45,124.24L232.18,122.59L232.31,122.36L232.77,122.17L232.85,121.87L233.09,121.08L232.98,120.34L233.26,120.90L233.26,121.81L232.58,122.64L228.49,126.10L224.29,128.95L219.32,131.54L216.13,132.71L212.06,134.01L208.75,134.73L203.16,135.34L197.67,135.34L194.65,135.18L191.80,134.84L184.06,133.34L178.20,131.65L171.49,129.13L164.77,125.95L158.08,122.23L149.16,117.22L140.60,113.02L139.43,112.50L31.46,145.76L29.09,146.25L24.95,146.25L22.27,145.92L18.35,146.09L16.89,146.09L15.40,145.57L14.72,144.90L14.54,144.42L14.46,143.17L14.88,142.80L14.87,142.29L15.43,141.69L16.23,141.71L17.90,142.73L20.25,143.90L22.26,144.59L23.66,144.65L25.14,144.93L25.14,145.11L24.72,145.41L23.06,145.39L23.24,145.59L23.94,145.76L24.79,145.78L24.90,145.95L25.79,146.08L26.75,146.09L30.32,145.64L165.46,103.72z"/><path style="fill:#000000" d="M186.31,89.00L188.94,89.19L195.55,90.18L196.55,90.35L197.73,90.61L201.87,91.70L206.90,93.55L210.76,95.39L215.46,98.25L218.32,100.26L221.50,102.95L223.03,104.44L224.57,106.23L224.01,106.13L223.57,106.21L222.95,106.29L222.74,106.44L221.54,107.09L220.75,107.59L218.49,105.30L216.46,104.13L215.13,103.11L212.44,101.95L211.27,101.27L203.71,98.75L201.69,98.43L199.35,97.75L197.16,97.58L194.81,97.07L194.26,97.07L192.75,97.41L189.22,97.58L186.03,98.08L185.04,98.43L182.67,98.58L182.01,98.92L180.37,99.30L178.37,100.48L177.12,101.59L175.53,103.52L175.17,104.17L175.03,105.92L174.19,104.94L172.66,102.44L171.64,99.94L171.15,97.58L171.15,94.95L171.77,92.54L172.51,91.30L173.83,90.07L174.40,89.67L175.06,89.29L175.74,89.16L181.44,88.76z"/><path style="fill:#b60505" d="M263.42,56.62L263.65,56.58L263.73,56.89L263.36,57.28L262.69,57.74L262.40,57.79L195.55,90.18L188.94,89.19L186.31,89.00L223.97,72.90L238.74,66.52L259.11,57.63L257.88,57.63L256.87,57.80L254.51,58.49L254.13,58.46L255.93,56.86L258.95,53.66L259.14,53.56L259.11,53.82L257.41,56.33L257.35,56.84L259.27,56.68z"/><path style="fill:#ea0e0e" d="M263.83,52.40L264.32,53.26L264.40,54.04L264.40,54.89L264.21,55.77L264.11,55.80L263.87,56.35L263.65,56.58L263.42,56.62L259.27,56.68L257.35,56.84L257.41,56.33L259.11,53.82L259.14,53.56L259.72,52.93L261.28,51.97L263.14,51.92z"/><path style="fill:#940505" d="M67.25,88.85L92.76,95.40L104.00,98.59L120.45,103.29L133.21,106.65L134.01,106.65L138.30,105.20L149.60,101.26L154.14,100.43L156.16,100.26L158.23,100.26L160.07,100.43L161.99,100.89L161.91,100.98L141.27,107.87L98.13,121.97L29.77,144.24L29.32,144.64L29.31,145.26L30.78,145.09L165.24,103.10L165.35,103.02L165.46,103.72L30.32,145.64L26.75,146.09L25.79,146.08L24.90,145.95L24.79,145.78L23.94,145.76L23.24,145.59L23.06,145.39L24.72,145.41L25.14,145.11L25.14,144.93L23.66,144.65L128.89,108.38L130.05,107.97L124.15,105.80L113.07,102.28L88.90,95.40L75.97,92.04L68.93,90.36L65.57,89.86L64.45,89.80L63.81,89.64L63.58,89.28L63.68,88.86L64.40,88.69L64.82,88.68L65.01,88.51L65.74,88.51z"/><path style="fill:#940505" d="M151.34,113.19L157.39,116.04L161.08,118.05L166.62,120.57L177.69,125.11L185.57,127.47L189.11,128.13L194.15,128.63L202.65,128.63L206.57,128.35L207.69,128.13L211.21,127.79L216.46,127.61L216.96,127.80L217.98,127.96L220.29,127.97L225.31,126.28L228.95,124.55L228.82,124.76L224.19,127.68L218.27,129.98L213.28,131.20L206.73,132.21L200.13,132.49L197.84,132.49L194.14,132.32L187.43,131.66L179.87,129.81L173.50,127.79L167.96,125.61L162.61,123.07L152.52,117.55L149.66,116.04L141.05,112.01L145.37,110.66z"/><path style="fill:#b60505" d="M70.27,45.21L73.63,45.54L74.37,45.84L70.56,47.23L65.01,49.40L64.47,49.81L62.95,50.15L57.08,51.33L56.07,51.50L55.88,51.56L55.23,51.67L55.05,51.73L54.39,51.83L54.21,51.90L53.55,52.00L53.37,52.06L52.71,52.16L49.84,52.74L49.40,52.76L49.39,52.87L49.35,53.01L49.22,53.10L48.12,53.10L46.26,52.77L40.72,51.09L40.32,50.90L40.48,50.75L63.00,45.04z"/><path style="fill:#b60505" d="M64.99,50.86L64.91,51.04L64.79,50.35L64.95,50.35z"/><path style="fill:#b60505" d="M264.40,54.89L264.40,54.04L264.47,54.10z"/><path style="fill:#b60505" d="M66.13,55.05L65.96,54.55L66.13,54.55z"/><path style="fill:#b60505" d="M264.21,55.90L263.99,56.39L263.87,56.35L264.11,55.80L264.21,55.77z"/><path style="fill:#b60505" d="M67.31,59.26L67.13,58.75L67.31,58.75z"/><path style="fill:#b60505" d="M67.81,60.93L67.64,60.43L67.81,60.42z"/><path style="fill:#b60505" d="M68.02,61.10L67.93,61.44L67.81,60.93L67.95,60.92z"/><path style="fill:#b60505" d="M68.48,63.12L68.31,62.61L68.48,62.61z"/><path style="fill:#b60505" d="M69.15,65.30L68.98,64.79L69.16,64.79z"/><path style="fill:#b60505" d="M69.65,66.98L69.48,66.47L69.66,66.47z"/><path style="fill:#b60505" d="M69.87,67.15L69.78,67.48L69.65,66.98L69.80,66.96z"/><path style="fill:#b60505" d="M73.56,78.22L73.47,78.56L73.35,78.09L73.48,78.05z"/><path style="fill:#b60505" d="M74.23,80.07L74.15,80.40L74.02,79.93L74.15,79.90z"/><path style="fill:#b60505" d="M75.08,82.24L74.98,82.76L74.69,81.79L74.83,81.74z"/><path style="fill:#b60505" d="M75.70,84.59L75.59,84.54L75.53,84.13L75.70,84.10z"/><path style="fill:#b60505" d="M76.71,85.65L76.70,85.78L75.91,85.67L76.02,85.47L76.19,85.42z"/><path style="fill:#b60505" d="M83.26,86.82L84.94,87.15L86.60,87.42L86.78,87.48L87.61,87.58L87.79,87.65L88.62,87.79L89.63,87.95L90.47,88.12L91.48,88.29L92.26,88.51L97.13,89.35L99.37,89.63L100.37,89.80L100.45,89.90L101.38,89.93L101.55,90.00L102.38,90.10L102.56,90.17L103.56,90.27L103.74,90.34L104.74,90.47L104.81,90.57L105.74,90.60L105.92,90.67L106.92,90.81L106.99,90.90L108.09,90.98L109.10,91.14L109.17,91.24L110.28,91.31L111.23,91.53L116.43,92.21L119.34,92.49L119.41,92.58L120.68,92.65L120.76,92.75L126.33,93.38L135.90,94.05L145.58,94.05L152.18,93.60L159.36,92.39L167.07,90.70L173.61,89.69L174.40,89.67L173.83,90.07L172.51,91.30L168.24,92.04L158.22,94.27L153.19,95.11L147.77,95.56L140.94,95.56L135.57,95.23L129.19,94.56L116.60,92.88L103.84,90.86L95.11,89.35L78.15,86.17L76.70,85.78L77.22,85.73z"/><path style="fill:#b60505" d="M162.93,101.10L164.27,101.77L165.13,102.59L165.35,103.02L165.24,103.10L30.78,145.09L29.31,145.26L29.32,144.64L29.77,144.24L98.13,121.97L141.27,107.87L161.91,100.98L161.99,100.89z"/><path style="fill:#b60505" d="M225.04,109.14L228.91,114.17L231.93,118.72L232.14,118.80L232.81,119.84L232.85,120.34L232.85,121.87L232.77,122.17L232.31,122.36L232.39,122.05L232.19,122.08L232.31,122.36L232.18,122.59L229.45,124.24L229.16,124.24L228.95,124.55L225.31,126.28L220.29,127.97L217.98,127.96L216.96,127.80L216.46,127.61L211.21,127.79L207.69,128.13L206.57,128.35L202.65,128.63L194.15,128.63L189.11,128.13L185.57,127.47L177.69,125.11L166.62,120.57L161.08,118.05L157.39,116.04L151.34,113.19L145.37,110.66L151.74,108.72L157.55,110.17L178.69,116.05L191.45,119.24L198.51,120.57L205.56,121.24L211.37,121.59L215.41,121.58L220.33,121.25L227.21,121.24L229.56,121.41L232.22,121.43L232.41,121.30L232.42,120.06L231.43,118.54L230.59,117.53L229.24,115.69L227.90,114.18L226.56,112.50L224.19,109.83L221.54,107.09L222.74,106.44z"/><path style="fill:#303030" d="M197.16,97.58L199.35,97.75L201.69,98.43L203.71,98.75L211.27,101.27L212.44,101.95L215.13,103.11L216.46,104.13L218.49,105.30L220.75,107.59L220.25,107.96L219.40,108.59L218.32,107.64L213.98,105.27L211.43,104.30L210.44,103.94L209.93,103.62L206.40,102.78L200.69,102.11L199.13,102.11L197.11,102.44L195.44,102.96L192.41,104.45L191.95,105.01L191.80,107.20L191.80,108.65L193.32,109.98L194.67,111.16L197.86,113.00L200.69,114.20L205.28,115.53L205.22,115.59L201.81,116.04L195.15,116.04L191.62,115.54L187.93,114.54L184.41,113.19L181.58,111.66L179.39,110.15L177.71,108.81L176.20,107.47L175.36,106.46L175.03,105.92L175.17,104.17L175.53,103.52L177.12,101.59L178.37,100.48L180.37,99.30L182.01,98.92L182.67,98.58L185.04,98.43L186.03,98.08L189.22,97.58L192.75,97.41L194.26,97.07L194.81,97.07z"/><path style="fill:#8a8a8a" d="M206.40,102.78L209.93,103.62L210.44,103.94L211.43,104.30L213.98,105.27L218.32,107.64L219.40,108.59L218.88,109.13L218.43,109.49L217.64,109.50L216.65,109.15L213.95,107.82L211.94,106.98L208.08,105.97L206.73,105.80L204.50,106.31L201.46,107.32L201.53,107.63L202.70,109.50L203.56,110.66L206.05,112.02L211.46,113.59L208.97,114.60L208.03,114.88L205.28,115.53L200.69,114.20L197.86,113.00L194.67,111.16L193.32,109.98L191.80,108.65L191.80,107.20L191.95,105.01L192.41,104.45L195.44,102.96L197.11,102.44L199.13,102.11L200.69,102.11z"/><path style="fill:#ea0e0e" d="M232.31,122.36L232.19,122.08L232.39,122.05z"/><path style="fill:#940505" d="M74.99,46.15L74.59,46.21L64.85,49.74L64.79,50.35L64.58,50.05L64.47,49.81L65.01,49.40L70.56,47.23L74.37,45.84L74.65,45.87z"/><path style="fill:#940505" d="M65.17,51.02L65.12,51.54L64.91,51.04L64.99,50.86L65.10,50.84z"/><path style="fill:#940505" d="M65.51,52.19L65.46,52.71L65.22,52.27L65.12,51.54L65.27,51.52z"/><path style="fill:#940505" d="M65.84,53.37L65.79,53.88L65.56,53.45L65.46,52.71L65.60,52.69z"/><path style="fill:#940505" d="M49.39,52.87L49.40,52.76L49.84,52.74z"/><path style="fill:#940505" d="M66.01,54.05L65.96,54.55L65.79,53.88L65.93,53.87z"/><path style="fill:#940505" d="M66.34,55.22L66.29,55.73L66.13,55.05L66.27,55.04z"/><path style="fill:#940505" d="M66.68,56.39L66.63,56.91L66.40,56.47L66.29,55.73L66.44,55.71z"/><path style="fill:#940505" d="M263.73,56.89L263.65,56.58L263.87,56.35L263.99,56.39z"/><path style="fill:#940505" d="M67.02,57.56L66.97,58.07L66.73,57.64L66.63,56.91L66.78,56.89z"/><path style="fill:#940505" d="M263.35,57.39L263.02,57.77L262.69,57.74L263.36,57.28z"/><path style="fill:#940505" d="M254.51,58.49L256.87,57.80L257.88,57.63L259.11,57.63L238.74,66.52L223.97,72.90L186.31,89.00L181.44,88.76L252.50,59.31L254.13,58.46z"/><path style="fill:#940505" d="M67.18,58.24L67.13,58.75L66.97,58.07L67.11,58.06z"/><path style="fill:#940505" d="M67.69,59.91L67.64,60.43L67.40,59.99L67.31,59.26L67.45,59.24z"/><path style="fill:#940505" d="M68.36,62.09L68.31,62.61L67.93,61.44L68.02,61.10z"/><path style="fill:#940505" d="M69.03,64.28L68.98,64.79L68.48,63.12L68.63,63.10z"/><path style="fill:#940505" d="M69.53,65.95L69.48,66.47L69.15,65.30L69.30,65.28z"/><path style="fill:#940505" d="M73.48,78.05L73.35,78.09L69.78,67.48L69.87,67.15L69.94,67.21z"/><path style="fill:#940505" d="M74.15,79.90L74.02,79.93L73.69,78.94L73.82,78.88z"/><path style="fill:#940505" d="M74.83,81.46L74.83,81.74L74.69,81.79L74.52,81.28L74.66,81.23z"/><path style="fill:#940505" d="M75.70,84.10L75.53,84.13L75.20,83.13L75.33,83.08z"/><path style="fill:#940505" d="M75.70,84.59L75.87,84.56L76.19,85.42L76.02,85.47z"/><path style="fill:#940505" d="M77.22,85.73L76.70,85.78L76.71,85.65z"/><path style="fill:#940505" d="M88.62,87.79L87.79,87.65L88.56,87.69z"/><path style="fill:#940505" d="M99.37,89.63L97.13,89.35L92.26,88.51L91.48,88.29L92.43,88.35z"/><path style="fill:#940505" d="M175.06,89.29L175.13,89.19L175.74,89.16z"/><path style="fill:#940505" d="M101.38,89.93L100.45,89.90L100.37,89.80z"/><path style="fill:#940505" d="M262.47,58.03L196.55,90.35L195.55,90.18L262.40,57.79L262.69,57.74z"/><path style="fill:#940505" d="M104.74,90.47L103.74,90.34L104.67,90.37z"/><path style="fill:#940505" d="M105.74,90.60L104.81,90.57L104.74,90.47z"/><path style="fill:#940505" d="M106.92,90.81L105.92,90.67L106.85,90.71z"/><path style="fill:#940505" d="M108.09,90.98L106.99,90.90L106.92,90.81L108.02,90.88z"/><path style="fill:#940505" d="M110.28,91.31L109.17,91.24L109.10,91.14L110.21,91.21z"/><path style="fill:#940505" d="M116.77,92.04L119.34,92.49L116.43,92.21L111.23,91.53L110.28,91.31z"/><path style="fill:#940505" d="M120.68,92.65L119.41,92.58L119.34,92.49L120.61,92.56z"/><path style="fill:#940505" d="M129.69,93.38L134.73,93.72L146.93,93.72L153.53,93.10L159.56,92.09L168.41,90.19L173.45,89.35L175.06,89.29L174.40,89.67L173.61,89.69L167.07,90.70L159.36,92.39L152.18,93.60L145.58,94.05L135.90,94.05L126.33,93.38L120.76,92.75L120.68,92.65L122.47,92.71z"/><path style="fill:#940505" d="M225.38,108.30L227.73,111.49L230.23,115.20L232.14,118.80L231.93,118.72L228.91,114.17L225.04,109.14L222.74,106.44L222.95,106.29L223.57,106.21z"/><path style="fill:#940505" d="M233.09,121.08L232.85,121.87L232.85,120.34L232.98,120.34z"/><path style="fill:#940505" d="M229.41,124.33L228.95,124.55L229.16,124.24L229.45,124.24z"/><path style="fill:#940505" d="M14.87,142.29L14.88,142.80L14.46,143.17L14.53,142.43L15.16,141.71L15.43,141.69z"/><path style="fill:#4c0505" d="M74.94,46.37L65.07,49.96L64.95,50.35L64.79,50.35L64.85,49.74L74.59,46.21L74.99,46.15z"/><path style="fill:#4c0505" d="M65.10,50.84L64.99,50.86L64.95,50.35L65.06,50.41z"/><path style="fill:#4c0505" d="M65.27,51.52L65.12,51.54L65.17,51.02L65.25,51.09z"/><path style="fill:#4c0505" d="M65.60,52.69L65.46,52.71L65.51,52.19z"/><path style="fill:#4c0505" d="M64.58,50.05L63.75,50.34L52.37,52.57L50.97,52.81L49.35,53.01L49.39,52.87L49.84,52.74L52.71,52.16L53.37,52.06L53.55,52.00L54.21,51.90L54.39,51.83L55.05,51.73L55.23,51.67L55.88,51.56L56.07,51.50L57.08,51.33L62.95,50.15L64.47,49.81z"/><path style="fill:#4c0505" d="M65.93,53.87L65.79,53.88L65.84,53.37L65.91,53.43z"/><path style="fill:#4c0505" d="M66.13,54.55L65.96,54.55L66.01,54.05L66.08,54.10z"/><path style="fill:#4c0505" d="M66.27,55.04L66.13,55.05L66.13,54.55L66.25,54.61z"/><path style="fill:#4c0505" d="M66.44,55.71L66.29,55.73L66.34,55.22L66.42,55.28z"/><path style="fill:#4c0505" d="M66.78,56.89L66.63,56.91L66.68,56.39z"/><path style="fill:#4c0505" d="M67.11,58.06L66.97,58.07L67.02,57.56L67.09,57.63z"/><path style="fill:#4c0505" d="M67.31,58.75L67.13,58.75L67.18,58.24L67.26,58.30z"/><path style="fill:#4c0505" d="M67.45,59.24L67.31,59.26L67.31,58.75L67.42,58.81z"/><path style="fill:#4c0505" d="M67.81,60.42L67.64,60.43L67.69,59.91z"/><path style="fill:#4c0505" d="M67.95,60.92L67.81,60.93L67.81,60.42L67.93,60.49z"/><path style="fill:#4c0505" d="M68.48,62.61L68.31,62.61L68.36,62.09z"/><path style="fill:#4c0505" d="M68.63,63.10L68.48,63.12L68.48,62.61L68.60,62.67z"/><path style="fill:#4c0505" d="M69.16,64.79L68.98,64.79L69.03,64.28z"/><path style="fill:#4c0505" d="M69.30,65.28L69.15,65.30L69.16,64.79L69.27,64.85z"/><path style="fill:#4c0505" d="M69.66,66.47L69.48,66.47L69.53,65.95z"/><path style="fill:#4c0505" d="M69.80,66.96L69.65,66.98L69.66,66.47L69.77,66.53z"/><path style="fill:#4c0505" d="M73.82,78.88L73.69,78.94L73.47,78.56L73.56,78.22L73.64,78.28z"/><path style="fill:#4c0505" d="M74.66,81.23L74.52,81.28L74.15,80.40L74.23,80.07L74.31,80.12z"/><path style="fill:#4c0505" d="M75.33,83.08L75.20,83.13L74.98,82.76L75.08,82.24z"/><path style="fill:#4c0505" d="M75.87,84.56L75.70,84.59L75.70,84.10L75.81,84.15z"/><path style="fill:#4c0505" d="M68.93,90.36L75.97,92.04L88.90,95.40L113.07,102.28L124.15,105.80L130.05,107.97L128.89,108.38L125.82,107.15L115.26,103.62L102.67,99.93L73.62,92.21L64.45,89.80L65.57,89.86z"/><path style="fill:#4c0505" d="M196.55,90.35L262.47,58.03L262.69,57.74L263.02,57.77L262.65,58.21L197.73,90.61z"/><path style="fill:#4c0505" d="M224.57,106.23L224.71,106.30L227.22,109.48L228.72,111.68L230.90,115.37L232.58,119.06L232.81,119.84L232.14,118.80L230.23,115.20L227.73,111.49L225.38,108.30L223.57,106.21L224.01,106.13z"/><path style="fill:#4c0505" d="M232.98,120.34L232.85,120.34L232.81,119.84L232.91,119.91z"/><path style="fill:#ffffff" d="M208.08,105.97L211.94,106.98L213.95,107.82L216.65,109.15L217.64,109.50L218.43,109.49L218.88,109.13L219.84,109.98L222.01,111.68L225.20,114.85L224.64,116.21L222.85,116.21L219.32,116.04L215.46,115.71L211.76,115.21L208.97,114.60L211.46,113.59L206.05,112.02L203.56,110.66L202.70,109.50L201.53,107.63L201.46,107.32L204.50,106.31L206.73,105.80z"/><g id="Actor_.0"><g style="stroke:#000000;stroke-width:0.353"><path d="M40.05,50.88L44.66,51.39L46.81,51.76L47.64,51.95L48.49,52.21L48.85,52.36L49.19,52.57L49.35,52.76L49.39,52.88L49.38,52.98L49.36,53.04L49.27,53.11L49.00,53.19"/><path d="M53.33,52.12L62.40,50.34L64.79,49.84L66.59,49.25L72.58,47.11"/><path d="M63.99,89.85L63.99,89.79"/><path d="M63.29,83.24L65.82,83.71L67.46,84.21L69.71,84.84L72.09,85.39L73.25,85.59L74.07,85.69L74.65,85.73L75.38,85.73L75.72,85.70L76.15,85.61L76.30,85.56L76.31,85.54"/><path d="M64.01,50.24L64.36,50.13L64.50,50.06L64.76,49.86"/><path d="M64.83,49.84L64.93,49.92"/><path d="M74.80,46.48L74.84,46.47"/><path d="M149.85,101.24L152.27,100.73L154.66,100.40L156.45,100.28L158.50,100.30L160.45,100.50L161.16,100.63L162.82,101.08L163.93,101.57L164.69,102.06L164.89,102.25L165.25,102.68L165.46,103.15L165.51,103.61L165.43,103.98L165.30,104.26L165.12,104.49L164.92,104.62"/><path d="M164.57,104.73L164.77,104.67"/></g><g style="stroke:#000000;stroke-width:0.705"><path d="M17.35,146.15L18.35,146.13L17.29,146.15L16.33,146.00L15.59,145.69L15.06,145.27L14.69,144.76L14.48,144.21L14.38,143.33L14.41,143.06L14.54,142.55L14.75,142.12L15.01,141.82L15.31,141.65L15.67,141.61L16.07,141.70L16.53,141.89L18.24,142.94"/><path d="M20.83,144.17L19.01,143.35L17.52,142.48"/><path d="M18.35,146.13L19.04,146.02"/><path d="M20.64,145.91L20.34,145.92L20.64,145.94L19.31,146.01L18.49,146.12L18.75,146.07"/><path d="M18.92,146.06L19.16,146.02"/><path d="M20.94,145.93L20.64,145.94L22.87,146.00L22.14,145.88"/><path d="M23.79,144.80L22.46,144.64L20.36,144.03"/><path d="M22.87,146.00L24.71,146.27L25.82,146.37L27.06,146.42L28.44,146.37L29.94,146.16L30.32,146.09L31.52,145.74L31.17,145.84L31.21,145.83"/><path d="M24.51,144.57L23.54,144.73"/><path d="M23.83,144.59L24.08,144.52L23.37,144.73"/><path d="M23.75,144.63L23.46,144.73L23.16,144.73"/><path d="M24.31,144.75L23.46,144.73"/><path d="M23.41,145.52L25.23,145.87L24.08,145.67"/><path d="M25.23,145.87L25.71,145.95L27.52,145.93L26.37,145.94"/><path d="M149.85,101.24L24.08,144.52L24.24,144.46"/><path d="M27.52,145.93L28.32,145.91"/><path d="M31.52,145.74L83.71,129.66L82.56,130.01"/><path d="M31.17,145.84L31.02,145.89"/><path d="M49.20,53.13L49.31,53.13L48.67,53.20L47.34,53.02L46.58,52.85L41.83,51.47L40.05,50.88L63.16,45.02L68.93,45.14L71.96,45.34L73.72,45.59L74.60,45.83L74.93,46.01L75.04,46.15L75.04,46.33L74.84,46.47L67.66,49.06L64.95,49.99"/><path d="M49.31,53.13L51.60,52.68L50.46,52.90"/><path d="M51.60,52.68L56.96,51.63"/><path d="M64.22,89.84L65.36,90.13L63.94,89.77L63.81,89.66L56.91,81.11L52.33,52.54"/><path d="M52.75,52.45L53.86,52.23"/><path d="M56.91,51.64L64.01,50.24L63.79,50.28"/><path d="M64.00,89.79L64.10,89.81L63.99,89.85L63.94,89.77"/><path d="M63.72,89.51L63.42,88.41L63.12,85.67L63.12,83.79L63.19,83.47L63.29,83.24"/><path d="M65.36,90.13L67.49,90.66L66.51,90.41"/><path d="M76.31,85.55L73.31,77.24L70.30,68.23L67.49,59.09L64.93,49.93"/><path d="M67.49,90.66L80.78,94.06L98.85,98.86L108.24,101.52L116.97,104.16L126.49,107.38L129.09,108.38"/><path d="M67.66,90.70L68.23,90.84"/><path d="M74.83,81.48L74.56,80.71"/><path d="M79.28,86.08L76.33,85.53L76.54,85.56L76.49,85.56"/><path d="M76.08,84.92L76.29,85.49"/><path d="M79.32,86.09L79.21,86.07L100.91,89.83L110.77,91.31L120.41,92.55L120.14,92.52"/><path d="M83.71,129.66L88.30,128.25L87.15,128.60"/><path d="M90.59,127.54L91.74,127.19L88.30,128.25"/><path d="M91.74,127.19L106.64,122.59L106.28,122.68"/><path d="M106.64,122.59L110.08,121.53L108.94,121.89"/><path d="M110.08,121.53L113.53,120.47L112.38,120.83"/><path d="M113.53,120.47L118.11,119.06L116.97,119.41"/><path d="M116.97,104.16L117.16,104.22"/><path d="M118.11,119.06L121.55,118.00L120.41,118.35"/><path d="M121.55,118.00L124.99,116.94L123.85,117.29"/><path d="M120.96,92.60L120.41,92.55L130.73,93.52L130.56,93.51"/><path d="M124.99,116.94L128.43,115.88L127.29,116.23"/><path d="M128.43,115.88L133.02,114.46L131.87,114.82"/><path d="M131.00,93.53L130.73,93.52L135.89,93.81L141.31,93.92L146.78,93.76L152.29,93.28L155.95,92.75L151.61,93.48"/><path d="M133.02,114.46L136.46,113.40L135.31,113.76"/><path d="M136.46,113.40L139.90,112.34L138.75,112.69"/><path d="M149.25,117.23L150.22,117.78L145.77,115.47L140.88,113.17L139.36,112.51"/><path d="M142.19,111.63L143.34,111.28L139.90,112.34"/><path d="M143.34,111.28L147.93,109.87L146.78,110.22"/><path d="M147.93,109.87L164.92,104.62L163.98,104.92L164.57,104.73"/><path d="M150.69,118.02L150.22,117.78L151.01,118.20L150.83,118.10"/><path d="M151.01,118.20L154.17,119.93L154.81,120.32L152.51,119.04"/><path d="M154.81,120.32L155.45,120.68"/><path d="M163.74,125.34L163.98,125.47L160.02,123.35L155.12,120.49"/><path d="M215.84,111.31L216.62,110.81L214.83,111.95L213.37,112.76L211.18,113.79L208.86,114.65L206.41,115.35L205.62,115.53L202.91,115.99L200.17,116.22L197.42,116.24L194.79,116.05L192.02,115.63L189.34,115.00L186.77,114.16L184.69,113.30L182.44,112.17L180.36,110.88L178.45,109.46L176.43,107.61L175.65,106.78L174.34,105.16L173.24,103.48L172.36,101.76L171.80,100.36L171.36,98.77L171.12,97.21L171.09,95.70L171.14,95.15L171.39,93.83L171.81,92.62L172.42,91.52L173.10,90.68L173.90,90.02L174.48,89.67L175.05,89.42L176.17,89.12L173.56,89.37L167.88,90.30L162.35,91.47L159.08,92.22L155.95,92.75L156.17,92.71"/><path d="M163.98,125.47L166.25,126.71L171.81,129.29L174.30,130.20L173.86,130.03"/><path d="M165.13,126.10L165.31,126.18"/><path d="M174.30,130.20L176.59,131.04L175.45,130.62"/><path d="M177.65,131.41L176.59,131.04L178.74,131.84L184.83,133.53L192.39,134.97L195.68,135.30L199.05,135.43"/><path d="M176.17,89.12L177.44,88.99L177.39,89.00"/><path d="M177.44,88.99L177.74,89.00L177.44,88.99"/><path d="M253.17,59.05L253.21,59.03L252.38,59.43L181.18,88.85L179.74,88.87L177.74,89.00L177.79,89.00"/><path d="M181.18,88.85L182.65,88.84L189.65,89.26L193.80,89.92L192.65,89.73"/><path d="M193.80,89.92L194.94,90.12L193.80,89.92"/><path d="M194.94,90.12L196.70,90.42L199.68,91.09L202.67,91.95L205.64,93.01L208.58,94.28L211.49,95.77L214.34,97.49L215.80,98.44L218.45,100.34L220.99,102.47L223.42,104.83L225.11,106.72L227.59,109.89L229.54,112.87L231.28,116.05L232.84,119.60L233.28,120.83L233.37,121.41L233.26,121.86L232.92,122.32L232.59,122.63"/><path d="M197.64,90.63L262.00,58.65L261.93,58.67"/><path d="M198.79,135.42L200.25,135.48L203.59,135.37L208.11,134.87L211.35,134.23L214.56,133.31L218.59,131.91L223.11,129.71L226.00,127.90L228.27,126.32L232.67,122.58L232.84,122.38"/><path d="M224.97,106.55L224.76,106.37L224.34,106.19L223.80,106.15L223.16,106.26L222.70,106.43L221.89,106.86L221.00,107.48L218.25,109.62L216.62,110.81"/><path d="M232.21,118.20L232.15,118.05"/><path d="M233.14,122.06L232.92,122.32"/><path d="M253.21,59.03L254.00,58.55L254.57,58.14L254.02,58.52L254.57,58.14L255.83,57.02"/><path d="M253.42,58.91L254.00,58.55L253.42,58.91"/><path d="M254.57,58.14L255.11,57.68"/><path d="M254.75,58.01L255.44,57.40"/><path d="M255.72,57.13L256.64,56.23L256.32,56.55"/><path d="M256.62,56.25L258.59,54.11L259.73,53.01L260.30,52.56L260.87,52.21L261.44,51.96L261.98,51.82L262.49,51.79L262.96,51.87L263.17,51.95L263.71,52.30L264.00,52.64L264.32,53.24L264.49,53.98L264.52,54.50L264.44,55.31"/><path d="M256.37,56.50L256.29,56.57"/><path d="M256.64,56.23L256.74,56.13"/><path d="M262.24,58.52L262.21,58.53L262.36,58.43L262.00,58.65L262.21,58.53L262.07,58.60"/><path d="M262.27,58.50L262.82,58.04L263.18,57.68L263.73,56.98L264.18,56.16L264.37,55.60L264.47,55.08"/><path d="M263.28,57.38L263.74,56.80L263.17,57.51"/><path d="M263.74,56.80L263.93,56.58L264.37,55.54L264.08,56.23"/><path d="M264.28,55.87L264.19,56.11"/></g></g><g/><g id="paperID" visibility="hidden" opacity="0.00" transform="scale(0.000100)"><path style="stroke:#000000;stroke-width:0.500;fill:#e6e6e6;fill-rule:evenodd" d="M-2000.00,-2000.00L2297.00,-2000.00L2297.00,2210.00L-2000.00,2210.00zM0.00,0.00L297.00,0.00L297.00,210.00L0.00,210.00z"/><path style="fill:#000000;fill-opacity:0.118" d="M3.00,210.00L297.00,210.00L297.00,3.00L300.00,3.00L300.00,213.00L3.00,213.00z"/></g><g id="ToolTip" visibility="hidden" opacity="0" transform="translate(0,0)"><rect id="ToolTipShadow" opacity="0.20" fill="black" stroke="none" x="0" y="0" width="30" height="8"/><rect id="ToolTipBG" fill="#ffffe1" stroke="black" x="0" y="0" width="30" height="8"/><text xml:space="preserve" id="ToolTipText" fill="black" x="0" y="0" width="30" height="8">tooltip</text></g></g></svg>