<?xml version="1.0" encoding="UTF-8" standalone="yes"?><svg xmlns="http://www.w3.org/2000/svg" xmlns:xlink="http://www.w3.org/1999/xlink" width="297.000mm" height="210.000mm" viewBox="0.000000 0.000000 297.000000 210.000000" stroke-linejoin="round" stroke-linecap="round" fill="none" fill-rule="evenodd"><desc>Composer Export</desc><script type="text/ecmascript"><![CDATA[
if(typeof(top) != "undefined")
{
	top.ShowPaper = ShowPaper;
}
function ShowHotSpot(evt,hotspotid)
{
	var svgDocument = evt.target.ownerDocument;
	var strId = "hotspot."+hotspotid;
	var hotspot = svgDocument.getElementById(strId);
	if(hotspot)
		hotspot.setAttribute("opacity",".5");
}
function HideHotSpot(evt,hotspotid)
{
	var svgDocument = evt.target.ownerDocument;
	var strId = "hotspot."+hotspotid;
	var hotspot = svgDocument.getElementById(strId);
	if(hotspot)
		hotspot.setAttribute("opacity","0");

	var toolTip = svgDocument.getElementById('ToolTip');
	if(toolTip)
		toolTip.setAttribute("visibility","hidden");
}
function ShowToolTip(evt,hotspotid,strTooltip)
{
	if(strTooltip=="")
	return;

	// change text
	var svgDocument = evt.target.ownerDocument;
	var tiptext = svgDocument.getElementById('ToolTipText');
	if( !tiptext )
	return;
	tiptext.firstChild.nodeValue = " " + strTooltip + "  " ;

	// show tooltip before, else some refresh issue

	var toolTip = svgDocument.getElementById('ToolTip');
	if(!toolTip)
	return;

	toolTip.setAttribute("visibility","visible");
	toolTip.setAttribute("opacity",".95");

	// move tooltip
	// get viewbox

	var root = svgDocument.documentElement;
	var vbox = (root.getAttribute("viewBox")).split(' ');
	var x0 = parseFloat(vbox[0]);
	var y0 = parseFloat(vbox[1]);
	var vboxW = parseFloat(vbox[2]);
	var vboxH = parseFloat(vbox[3]);

	// get default width of svg

	var strW = root.getAttribute("width");
	var svgW = parseFloat(strW);
	if(strW.indexOf('mm') != -1)
	svgW *= 3.779;

	var strH = root.getAttribute("height");
	var svgH = parseFloat(strH);
	if(strH.indexOf('mm') != -1)
	svgH *= 3.779;  	// 96 dpi  -> 96/25.4 = 3.779

	// update the viewbox / width / height if svg is embedded in html with zoom fit all
	var realx0 = x0;
	var realy0 = y0;
	var realvboxW = vboxW;
	var realvboxH = vboxH;
	var realsvgW = svgW;
	var realsvgH = svgH;

	if ((typeof(top) == "undefined") || (typeof(top.svgctl1) != "undefined")) // embedded in html
	{
		// get window size in pxl

		svgW = window.innerWidth;
		svgH = window.innerHeight;

		// calculate real viewbox

		realsvgW = svgW;
		realsvgH = svgH;
		if((svgW / svgH) > (vboxW / vboxH))
		{
			realvboxW = (vboxH * svgW) / svgH;
			realvboxH = vboxH;
			realx0 = x0 - (realvboxW - vboxW)/2 ;
		}
		else
		{
			realvboxH = (vboxW * svgH) / svgW;
			realvboxW = vboxW;
			realy0 = y0 - (realvboxH - vboxH)/2 ;
		}
	}

	// get user zoom/pan

	var newScale = root.currentScale;
	var translation = root.currentTranslate;

	// transform pxl to user unit

	var xPos = (((evt.clientX+10- translation.x)/newScale) * realvboxW)/realsvgW  + realx0 ;
	var yPos = (((evt.clientY+5- translation.y)/newScale) * realvboxH)/ realsvgH  + realy0 ;
	var scaleForWidth = ( (1 / newScale) * realvboxH) / realsvgH;

	// move tooltip

	toolTip.setAttribute("transform", "translate(" + xPos + "," + yPos + ")" );

	// resize tooltip

	var fontsize = 12;
	tiptext.setAttribute("font-size",fontsize*scaleForWidth);
	tiptext.setAttribute("y", fontsize*scaleForWidth);
	var tipBG = svgDocument.getElementById('ToolTipBG');
	var outline = tiptext.getBBox();
	if(tipBG)
	{
		tipBG.setAttribute("stroke-width", 1*scaleForWidth);
		tipBG.setAttribute("width", Number(outline.width) );
		tipBG.setAttribute("height", Number(outline.height) + fontsize*.5*scaleForWidth );
	}
	var ToolTipShadow = svgDocument.getElementById('ToolTipShadow');
	if(ToolTipShadow)
	{
		ToolTipShadow.setAttribute("width", Number(outline.width) );
		ToolTipShadow.setAttribute("height", Number(outline.height) + fontsize*.5*scaleForWidth );
		ToolTipShadow.setAttribute("x", 3*scaleForWidth);
		ToolTipShadow.setAttribute("y", 3*scaleForWidth);
	}
}
function ShowPaper()
{
  var svgDocument = getDocument();
  var paper = svgDocument.getElementById("paperID");
  if(paper)
  {
    paper.setAttribute("transform","scale(1)");
    paper.setAttribute("opacity","1");
    paper.setAttribute("visibility","visible");
  }
  var svg = svgDocument.getRootElement();
  if(svg)
  {
    svg.setAttribute("width","307.000mm");
    svg.setAttribute("height","220.000mm");
    svg.setAttribute("viewBox","-5.000000 -5.000000 307.000000 220.000000");
  }
}
]]></script><defs/><g><g id="Actor_.0"><g style="stroke:#000000;stroke-width:0.176"><path d="M23.28,68.85L23.12,68.61L22.83,68.03L23.49,69.24L24.08,69.87L23.73,69.49"/><path d="M22.83,68.03L22.81,67.99"/><path d="M23.45,69.17L23.30,68.91"/><path d="M24.44,70.25L24.22,70.00L24.54,70.34"/><path d="M24.22,70.00L24.08,69.87"/><path d="M25.90,71.55L25.86,71.53L26.09,71.65"/><path d="M25.86,71.53L25.76,71.47"/><path d="M25.43,71.27L25.48,71.30"/><path d="M31.79,67.91L32.59,68.57"/><path d="M31.13,67.37L30.98,67.24L31.68,67.82"/><path d="M33.26,75.04L53.90,84.77L52.75,84.23"/><path d="M33.55,69.27L33.46,69.21L33.59,69.29"/><path d="M34.71,70.00L34.79,70.05"/><path d="M68.10,91.48L53.90,84.77"/><path d="M66.30,136.04L66.37,135.87L66.28,136.21L66.30,136.04"/><path d="M66.37,135.87L66.69,134.87"/><path d="M66.28,136.21L66.22,136.44"/><path d="M66.73,138.79L66.52,138.63L66.57,138.66"/><path d="M66.92,134.18L66.52,135.41L66.86,134.36"/><path d="M72.08,124.00L72.36,123.76L72.89,123.58L73.44,123.60L74.08,123.76L74.54,123.95L75.31,124.36L79.04,126.78L80.72,127.72L82.43,128.52L84.23,129.22L86.12,129.78L87.71,130.14L89.89,130.49L92.11,130.66L94.35,130.67L95.39,130.62L97.83,130.36L100.24,129.92L102.61,129.29L104.94,128.48L106.79,127.68L108.97,126.54L111.01,125.25L112.90,123.81L113.46,123.33L115.08,121.78L116.51,120.13L117.74,118.40L118.34,117.42L119.21,115.70L119.86,113.97L120.29,112.27L120.46,111.17L120.52,109.68L120.39,108.27L120.13,107.15L119.68,106.01L119.07,105.02L118.61,104.49L117.84,103.87L116.96,103.44L116.42,103.29L115.80,103.18L114.75,103.15L114.41,103.18"/><path d="M114.67,103.15L112.57,103.32L108.80,103.74L103.11,104.77L98.71,105.94"/><path d="M114.75,103.15L117.57,103.06L123.85,103.25"/><path d="M118.11,103.08L118.35,103.09"/><path d="M120.39,108.27L120.41,108.47"/><path d="M123.26,140.41L124.67,139.67"/><path d="M151.97,123.62L126.89,117.04L126.69,116.94L126.50,116.74L126.36,116.50L126.26,116.16L126.29,115.72L126.47,115.27L126.82,114.82L127.02,114.62L127.76,114.07L128.87,113.49L130.56,112.87L131.29,112.66L133.31,112.24L135.45,111.97L137.36,111.87L139.89,111.89L142.50,112.09L162.42,118.51"/><path d="M130.19,103.67L133.50,104.06"/><path d="M153.05,103.28L152.68,103.32"/><path d="M172.27,114.17L180.94,110.65"/><path d="M225.89,142.21L226.96,142.10L225.39,142.27"/><path d="M226.96,142.10L228.07,141.70L227.33,141.97"/><path d="M228.07,141.70L228.34,141.60"/><path d="M229.58,140.82L229.74,140.71L229.44,140.89L228.75,141.17L228.24,141.26L228.47,141.24"/><path d="M230.53,140.18L230.16,140.45"/><path d="M229.74,140.71L230.24,140.37"/><path d="M230.22,85.09L230.20,85.15L230.27,85.19L230.63,85.25L231.07,85.26L232.03,85.15L234.49,84.61L238.08,83.51L240.67,82.59L243.90,81.37L247.31,80.40L247.43,80.64L247.54,81.00L247.83,83.04L248.00,86.04L247.94,87.15L247.86,87.42L247.73,87.56L247.74,87.63"/><path d="M230.45,40.86L230.56,40.93L230.51,40.92"/><path d="M230.85,82.64L232.09,77.78"/><path d="M232.03,78.03L232.07,77.87"/><path d="M232.36,42.01L237.01,44.90L238.41,45.66L238.36,45.74"/><path d="M237.80,49.34L237.98,48.20L236.78,55.82"/><path d="M238.31,90.66L238.27,90.67"/><path d="M237.98,48.20L238.16,47.05"/><path d="M238.48,45.69L238.66,45.84L238.90,45.93"/><path d="M238.41,45.66L240.62,46.19L249.02,47.98"/><path d="M238.86,45.92L242.61,46.77L252.93,48.93L252.67,48.82L252.64,48.65L252.74,48.48L253.07,48.20L254.03,47.69L255.96,46.94L259.36,45.86L265.94,44.07"/><path d="M247.62,87.59L247.73,87.56"/><path d="M256.03,48.14L255.29,48.41L253.65,48.86L252.93,48.93"/><path d="M255.75,40.42L255.72,40.43"/></g><g style="stroke:#000000;stroke-width:0.529"><path d="M22.69,67.72L22.52,67.08L22.69,67.72L22.96,68.39L22.82,68.07"/><path d="M32.38,68.40L30.92,67.16L28.67,65.14L27.36,64.10L26.70,63.70L26.05,63.39L25.10,63.16L24.52,63.16L24.00,63.27L23.55,63.49L23.34,63.65L23.00,64.00L22.64,64.68L22.44,65.49L22.42,66.42L22.52,67.08"/><path d="M22.44,66.56L22.43,66.45"/><path d="M22.96,68.39L23.33,69.07L23.89,69.84L24.53,70.52L25.52,71.33"/><path d="M23.35,69.11L23.53,69.36"/><path d="M22.93,68.33L22.95,68.36"/><path d="M25.43,71.27L25.61,71.40L25.57,71.37"/><path d="M25.61,71.40L26.37,71.80L98.71,105.94L96.59,106.56L93.83,107.52L91.11,108.65L88.45,109.94L85.11,111.83L83.31,113.07L81.99,114.02L79.65,115.81L77.42,117.79L75.31,119.95L73.34,122.29L72.07,124.01L70.06,127.16L68.59,129.96L67.34,132.91L66.69,134.87"/><path d="M25.90,71.55L25.93,71.57"/><path d="M32.11,68.18L32.98,68.86L33.89,69.49L33.59,69.29"/><path d="M33.55,69.27L34.38,69.80L33.89,69.49"/><path d="M34.38,69.80L35.36,70.35L34.79,70.05"/><path d="M34.85,70.08L34.74,70.00L35.36,70.35L36.39,70.81L35.55,70.44"/><path d="M34.74,70.00L34.40,69.83"/><path d="M36.39,70.81L118.35,103.09L124.44,103.26L130.19,103.67L135.22,103.96L141.14,104.05L147.09,103.82L152.68,103.32L158.01,102.60L164.07,101.59L176.06,99.19L187.92,96.44L199.70,93.46L225.90,86.32L225.70,86.38"/><path d="M235.54,141.91L235.73,141.93L233.90,141.90L231.56,142.02L226.75,142.61L225.70,142.66L224.57,142.60L224.12,142.53L151.97,123.62L149.17,125.10L144.05,128.05L138.95,131.19L133.83,134.44L128.63,137.59L122.39,140.88L116.80,143.30L110.02,145.61L104.07,147.11L99.92,147.80L96.83,148.13L93.72,148.24L92.63,148.24L89.58,148.12L86.55,147.74L83.56,147.10L79.85,146.17L75.61,144.46L72.90,143.06L70.77,141.79L66.63,138.73L66.36,138.49L66.08,138.16L66.00,137.97L65.96,137.71L65.99,137.26L66.30,136.04L66.51,135.43L66.32,136.00"/><path d="M66.89,134.26L66.51,135.43L66.73,134.78"/><path d="M66.73,138.79L66.57,138.66"/><path d="M67.27,133.11L66.92,134.18"/><path d="M236.31,91.32L237.37,90.98L225.32,95.01L202.69,102.76L191.43,106.78L180.26,110.97L172.27,114.17L170.10,115.06L162.42,118.51L230.24,140.37L230.69,140.06L230.53,140.18"/><path d="M226.31,86.20L226.79,86.07L225.90,86.32"/><path d="M226.79,86.07L230.21,85.09L231.73,79.18L231.43,80.33"/><path d="M234.88,43.66L235.08,43.79L230.49,40.90L230.41,40.77L230.45,40.63L230.67,40.41L230.90,40.28L231.75,39.91L233.12,39.48L234.48,39.13L238.06,38.33L245.89,36.89L265.94,44.07L263.92,44.96L258.45,47.25L256.03,48.14L255.83,76.90L247.74,87.63L247.64,87.59L247.69,87.57"/><path d="M235.47,141.91L236.06,141.90L236.31,141.85L236.70,141.64L236.92,141.34L236.99,140.96L236.94,140.53L236.74,140.00L236.39,139.37L236.22,139.15L235.84,138.76L235.42,138.44L234.98,138.21L234.53,138.10L234.07,138.09L233.61,138.18L233.15,138.35L232.22,138.90L230.49,140.20"/><path d="M230.56,40.93L231.14,41.31"/><path d="M232.09,77.78L232.31,76.89L231.73,79.18"/><path d="M235.08,43.79L236.03,44.39L238.36,45.74L236.75,55.76L234.81,65.85L232.57,75.85L232.07,77.87"/><path d="M232.31,76.89L232.58,75.89"/><path d="M233.93,43.07L234.36,43.34"/><path d="M241.96,89.46L242.08,89.42L237.37,90.98L238.27,90.67"/><path d="M241.29,89.65L241.62,89.54"/><path d="M242.02,89.44L247.64,87.59"/><path d="M247.05,87.77L247.26,87.71"/><path d="M246.86,87.84L247.17,87.73"/></g></g><g/><g id="paperID" visibility="hidden" opacity="0.00" transform="scale(0.000100)"><path style="stroke:#000000;stroke-width:0.500;fill:#e6e6e6;fill-rule:evenodd" d="M-2000.00,-2000.00L2297.00,-2000.00L2297.00,2210.00L-2000.00,2210.00zM0.00,0.00L297.00,0.00L297.00,210.00L0.00,210.00z"/><path style="fill:#000000;fill-opacity:0.118" d="M3.00,210.00L297.00,210.00L297.00,3.00L300.00,3.00L300.00,213.00L3.00,213.00z"/></g><g id="ToolTip" visibility="hidden" opacity="0" transform="translate(0,0)"><rect id="ToolTipShadow" opacity="0.20" fill="black" stroke="none" x="0" y="0" width="30" height="8"/><rect id="ToolTipBG" fill="#ffffe1" stroke="black" x="0" y="0" width="30" height="8"/><text xml:space="preserve" id="ToolTipText" fill="black" x="0" y="0" width="30" height="8">tooltip</text></g></g></svg>